<?xml version="1.0" encoding="utf-8"?>
<!-- Generator: Adobe Illustrator 25.0.0, SVG Export Plug-In . SVG Version: 6.00 Build 0)  -->
<svg version="1.1" id="Layer_1" xmlns="http://www.w3.org/2000/svg" xmlns:xlink="http://www.w3.org/1999/xlink" x="0px" y="0px"
	 viewBox="0 0 1080 361.53" style="enable-background:new 0 0 1080 361.53;" xml:space="preserve">
<style type="text/css">
	.st0{fill:#1C46DE;}
</style>
<g>
	<path id="XMLID_193_" class="st0" d="M184.59,70.51c-44.51,0-88.09,29.68-88.09,82.9v135.3c0,6.84,5.66,12.39,12.5,12.39
		s12.5-5.55,12.5-12.39v-71.89c16,16.68,38.25,27.11,62.99,27.11c47.81,0,86.76-38.9,86.76-86.71S232.4,70.51,184.59,70.51z
		 M184.59,219.16c-34.15,0-61.93-27.78-61.93-61.93s27.78-61.93,61.93-61.93s61.93,27.78,61.93,61.93S218.74,219.16,184.59,219.16z"
		/>
	<path id="XMLID_200_" class="st0" d="M766.01,175.09c0-39.4-32.06-71.46-71.46-71.46c-39.4,0-71.46,32.06-71.46,71.46
		s32.06,71.46,71.46,71.46c17.52,0,33.58-6.35,46.03-16.85l-0.29,17.89c-0.11,6.84,5.46,12.86,12.19,12.86c0.07,0,0.14,0,0.2,0
		c6.75,0,12.27-5.84,12.38-12.61l0.95-59.98C766.03,186.5,766.01,178.11,766.01,175.09z M694.55,221.78
		c-25.75,0-46.69-20.94-46.69-46.69s20.94-46.69,46.69-46.69c25.75,0,46.69,20.94,46.69,46.69S720.29,221.78,694.55,221.78z"/>
	<path id="XMLID_204_" class="st0" d="M427.57,174.37c0-39.4-32.06-71.46-71.46-71.46s-71.46,32.06-71.46,71.46
		s32.06,71.46,71.46,71.46c17.52,0,33.58-6.35,46.03-16.85l-0.29,18.24c-0.11,6.84,4.91,13.22,12.19,13.22c0.07,0,0.14,0,0.2,0
		c7.77,0,12.27-6.2,12.38-12.97l0.95-60.15C427.59,185.96,427.57,177.4,427.57,174.37z M356.1,221.06
		c-25.75,0-46.69-20.94-46.69-46.69s20.94-46.69,46.69-46.69c25.75,0,46.69,20.94,46.69,46.69S381.85,221.06,356.1,221.06z"/>
	<path id="XMLID_186_" class="st0" d="M594.5,166.24v-60.47c0-6.84-5.66-12.39-12.5-12.39s-12.5,5.55-12.5,12.39v70.73
		c-3,25.13-25.11,44.57-51.26,44.57c-28.5,0-51.74-23.08-51.74-51.45v-63.84c0-6.84-5.66-12.39-12.5-12.39s-12.5,5.55-12.5,12.39
		v63.84c0,42.03,34.46,76.23,76.63,76.23c19.68,0,37.37-7.46,51.37-19.68v7.29c0,10.48-5.19,25.87-19.87,34.77
		c-19.88,12.06-51.38,7.99-88.72-11.45c-6.08-3.17-13.55-0.8-16.7,5.26c-3.16,6.07-0.8,13.55,5.27,16.71
		c30.06,15.66,54.05,21.13,72.92,21.13c17.58,0,30.8-4.76,40.21-10.47c23.48-14.24,31.9-39.04,31.9-55.95v-55.42
		C594.5,175.26,594.5,167.31,594.5,166.24z"/>
	<path id="XMLID_192_" class="st0" d="M617.18,107.45h19.06c0,0,16.2-24.18,10.48-36.57C641,58.49,624.48,57.44,614,66.02
		S607.65,94.45,617.18,107.45z"/>
	<path id="XMLID_189_" class="st0" d="M936.35,108.27c-20.19-0.39-38.29,3.88-51.88,21.85c-19.51-24.07-40.03-23.82-51.55-20.89
		c-26.09,6.62-44.41,27.09-44.41,57.52v80.04c0,6.84,5.66,12.39,12.5,12.39s12.5-5.55,12.5-12.39v-80.04
		c0-19.3,11.38-32.39,25.55-33.51c16.32-1.29,33.45,6.46,33.45,30.08v83.47c0,6.84,5.66,12.39,12.5,12.39s12.5-5.55,12.5-12.39
		v-83.68c0-20.02,17.59-31.4,31-30.67c15.07,0.83,30,9.34,30,34.31v78.13c0,6.84,5.66,12.39,12.5,12.39s12.5-5.55,12.5-12.39v-78.13
		C983.5,129.45,962.33,108.78,936.35,108.27z"/>
</g>
</svg>
