<svg width="299" height="185" viewBox="0 0 299 185" fill="none" xmlns="http://www.w3.org/2000/svg">
<g clip-path="url(#clip0)">
<path d="M5.27766 45.744L0 49.7921C0 49.7921 33.6959 113.955 39.1765 133.184C44.6572 152.412 49.7318 185 49.7318 185H60.6931L54.4005 139.458C54.4005 139.458 90.7352 136.928 109.41 139.762C128.085 142.697 181.978 159.8 197.811 170.325C213.644 180.851 214.659 183.178 214.659 183.178L230.695 182.875C230.695 182.875 181.47 143.608 149.804 132.475C118.138 121.343 54.6035 127.921 54.6035 127.921C54.6035 127.921 14.1076 52.8282 5.27766 45.744Z" fill="#DDE3E8"/>
<path d="M140.975 156.056C140.975 156.056 139.249 165.367 140.975 170.224C142.7 175.082 146.963 180.041 146.963 180.041C146.963 180.041 138.437 180.041 135.494 177.005C132.551 173.969 126.359 160.104 126.359 160.104C126.359 160.104 128.186 155.752 130.318 148.972C132.145 143.001 134.073 135.309 135.088 127.213C135.291 125.796 135.392 124.379 135.494 122.962C136.001 116.182 136.204 110.615 136.103 106.365C136.103 98.6734 135.494 94.8277 135.494 94.8277C135.494 94.8277 132.145 99.2807 127.273 105.049C123.01 110.008 117.733 115.878 112.455 120.432C112.252 120.635 112.049 120.837 111.846 120.938C100.377 130.755 83.6307 128.022 75.0037 124.986C66.3768 121.95 63.6365 117.497 63.6365 117.497L82.7173 105.252C82.7173 105.252 118.849 81.064 131.84 74.3846C144.831 67.604 153.052 71.0449 155.793 81.9749C156.808 86.1242 154.981 97.459 152.342 110.109C150.616 118.509 148.485 127.415 146.455 135.208C144.222 144.114 142.192 151.502 141.381 154.538C141.076 155.449 140.975 156.056 140.975 156.056Z" fill="#07419E"/>
<path d="M202.784 154.335C202.784 154.335 181.978 173.058 180.557 174.374C179.644 175.386 173.757 165.569 167.566 156.764C165.028 153.222 162.491 149.781 160.157 147.251C156.706 143.608 151.733 139.155 146.455 135.107C142.598 132.172 138.64 129.338 135.088 127.112C132.043 125.189 129.303 123.772 127.171 122.962C124.33 121.849 118.747 121.039 112.556 120.331C100.783 119.015 87.0814 118.307 87.0814 118.307C87.0814 118.307 90.3292 103.43 104.64 103.329C110.425 103.329 118.849 103.936 127.273 105.049C130.318 105.454 133.261 105.859 136.204 106.365C142.598 107.478 148.384 108.794 152.342 110.211C154.169 110.818 155.488 111.526 156.402 112.235C160.766 115.676 169.291 134.702 174.873 146.037C177.208 150.793 179.035 154.133 179.847 154.437C182.384 155.449 202.784 154.335 202.784 154.335Z" fill="#07419E"/>
<path d="M27.8093 41.291C27.8093 41.291 15.0211 33.802 12.8897 27.1225C10.7583 20.4431 14.9196 6.17342 27.8093 10.93C40.6989 15.6865 40.496 16.395 42.4243 25.6045C44.3527 34.814 41.0034 44.3271 27.8093 41.291Z" fill="#89564A"/>
<path d="M25.0689 43.3151C25.0689 43.3151 21.8211 49.0837 26.6928 69.3244C31.5645 89.5651 57.3439 118.813 60.6932 120.938C64.0424 123.063 73.1769 115.979 75.0037 113.348C76.8306 110.818 84.6456 103.329 84.6456 103.329L74.2933 89.9699L80.3829 79.5459C80.3829 79.5459 58.3588 58.4956 50.7468 50.703C43.1348 42.9103 29.4332 41.6958 25.0689 43.3151Z" fill="#D82F0E"/>
<path d="M80.3829 79.5459C80.3829 79.5459 92.2576 67.7051 97.6368 59.204C103.016 50.8042 104.234 40.3802 103.219 35.4212C102.204 30.4623 100.58 25.4021 100.58 25.4021L105.249 31.1707C105.249 31.1707 106.365 20.3419 107.177 18.0142C107.989 15.6865 107.38 16.4962 108.497 22.4672C109.613 28.4382 112.049 40.5826 110.628 46.6548C109.207 52.727 98.6517 95.3337 92.8666 95.9409C87.0815 96.5481 74.1918 89.9699 74.1918 89.9699L80.3829 79.5459Z" fill="#89564A"/>
<path d="M37.8571 17.5082C37.8571 17.5082 40.8004 16.1926 40.1915 12.1444C39.5825 8.09628 32.9854 -0.809627 19.7913 3.74453C6.59711 8.29869 6.59711 23.2768 8.62698 26.0093C10.6569 28.7418 13.3972 33.9032 17.2539 35.32C21.1107 36.7369 22.1256 35.32 22.1256 35.32L19.0808 31.2719C19.0808 31.2719 19.0808 31.2719 17.2539 28.9442C15.427 26.6165 19.2838 23.0744 20.0957 23.5804C20.9077 24.0864 22.6331 27.1225 22.6331 27.1225C22.6331 27.1225 21.8211 22.1636 22.1256 19.2287C22.4301 16.2938 37.8571 17.5082 37.8571 17.5082Z" fill="#070E19"/>
<path d="M107.38 6.67943L105.35 29.4502C105.35 29.4502 103.726 26.3129 103.219 26.0093C102.711 25.7057 102.914 1.11324 103.726 0.404818C104.538 -0.40481 107.38 0.404818 107.38 0.404818V6.67943Z" fill="#070E19"/>
<path d="M146.963 179.94C146.963 179.94 138.437 179.94 135.494 176.904C132.551 173.868 126.359 160.003 126.359 160.003C126.359 160.003 128.186 155.651 130.318 148.87L131.84 147.453L141.076 153.121L141.482 154.335C141.178 155.347 141.076 155.853 141.076 155.853C141.076 155.853 139.351 165.164 141.076 170.022C142.7 174.981 146.963 179.94 146.963 179.94Z" fill="#070E19"/>
<path d="M202.784 154.335C202.784 154.335 181.978 173.058 180.557 174.374C179.644 175.386 173.757 165.569 167.566 156.764L174.772 145.834C177.106 150.591 178.933 153.931 179.745 154.234C182.384 155.449 202.784 154.335 202.784 154.335Z" fill="#070E19"/>
<path d="M255.561 174.88L248.456 140.673L286.009 141.482L278.397 174.88H255.561Z" fill="#DDE3E8"/>
<path d="M280.427 174.88H252.516V185H280.427V174.88Z" fill="#DDE3E8"/>
<path d="M266.421 141.078C266.421 141.078 249.877 114.967 245.817 96.1433C241.758 77.3195 248.355 59.9125 248.355 59.9125C248.355 59.9125 262.158 91.0831 266.421 141.078Z" fill="#DDE3E8"/>
<path d="M298.696 56.4716C298.696 56.4716 267.74 97.1554 266.421 141.078L282.558 98.7746L271.698 141.179C271.698 141.179 302.755 82.6833 298.696 56.4716Z" fill="#DDE3E8"/>
</g>
<defs>
<clipPath id="clip0">
<rect width="299" height="185" fill="white"/>
</clipPath>
</defs>
</svg>
