<svg width="298" height="277" viewBox="0 0 298 277" fill="none" xmlns="http://www.w3.org/2000/svg">
<path d="M0 58.6084L166.279 0V102.843L2.6217 172.966L0 58.6084Z" fill="#EDEAE8"/>
<path d="M9.77173 96.7276C9.77173 96.7276 24.628 80.8446 26.2169 72.3472C27.8059 63.8498 26.2169 57.3377 26.2169 57.3377L143.24 15.7242C143.24 15.7242 144.829 28.4306 151.741 33.1955C158.653 37.9604 158.653 37.9604 158.653 37.9604L161.274 75.5238C161.274 75.5238 151.185 89.2626 149.596 96.7276C148.007 104.193 148.007 104.113 148.007 104.113L35.1943 150.174C35.1943 150.174 24.0719 133.735 17.1602 132.147C10.2484 130.558 10.2484 130.558 10.2484 130.558L9.77173 96.7276Z" fill="#F9F9F9"/>
<path d="M87.6283 57.1789C87.6283 57.1789 65.3836 64.9616 63.7947 92.9951C62.2058 121.029 97.1618 123.729 113.051 105.702C128.94 87.6743 129.496 49.9521 87.6283 57.1789Z" fill="#EDEAE8"/>
<path d="M46.0784 62.5791L212.358 3.97075V106.813L48.7001 176.937L46.0784 62.5791Z" fill="#EDEAE8"/>
<path d="M55.8501 100.698C55.8501 100.698 70.7064 84.8154 72.2953 76.318C73.8842 67.8205 72.2953 61.3085 72.2953 61.3085L189.319 19.6949C189.319 19.6949 190.907 32.4014 197.819 37.1663C204.731 41.9312 204.731 41.9312 204.731 41.9312L207.353 79.4946C207.353 79.4946 197.263 93.2334 195.674 100.698C194.085 108.163 194.085 108.084 194.085 108.084L81.2727 154.145C81.2727 154.145 70.1503 137.706 63.2385 136.118C56.3268 134.529 56.3268 134.529 56.3268 134.529L55.8501 100.698Z" fill="#F9F9F9"/>
<path d="M133.707 61.1496C133.707 61.1496 111.462 68.9323 109.873 96.9659C108.284 124.999 143.24 127.7 159.129 109.672C175.018 91.6451 175.574 53.9229 133.707 61.1496Z" fill="#EDEAE8"/>
<path d="M145.465 41.2959L146.974 173.522C146.974 173.522 160.321 215.771 211.643 224.983C211.643 224.983 277.185 192.582 279.569 140.168C281.952 87.7537 284.335 0.794144 284.335 0.794144L145.465 41.2959Z" fill="#DBD7D5"/>
<path d="M159.129 53.2081V172.887C159.129 172.887 175.177 215.691 226.499 224.983C226.499 224.983 290.77 204.494 293.154 152.08C295.537 99.666 298 12.7064 298 12.7064L159.129 53.2081Z" fill="#1A49A8"/>
<path d="M284.494 0.952988L297.921 12.7858L158.97 53.2876L156.984 144.218L145.624 137.229V41.6929L284.494 0.952988Z" fill="#DBD7D5"/>
<path d="M195.198 104.431L186.697 124.841L221.812 157.321L266.142 73.6178L251.842 59.4025L217.919 124.841L195.198 104.431Z" fill="white"/>
<path d="M0 234.672L126.874 172.966L2.93948 242.057L0 234.672Z" fill="#EDEAE8"/>
<path d="M9.53345 248.172L136.408 186.467L12.4729 255.558L9.53345 248.172Z" fill="#EDEAE8"/>
<path d="M22.2448 260.879L149.119 199.173L25.1842 268.264L22.2448 260.879Z" fill="#EDEAE8"/>
<path d="M39.7228 269.614L166.597 207.909L42.6623 277L39.7228 269.614Z" fill="#EDEAE8"/>
</svg>
