<svg width="458" height="462" viewBox="0 0 458 462" fill="none" xmlns="http://www.w3.org/2000/svg">
<g clip-path="url(#clip0)">
<path d="M144.858 113.107C141.481 106.483 138.104 99.3185 139.32 91.8837C139.995 87.9636 142.021 84.3138 143.102 80.5288C145.804 71.2015 142.967 61.0632 145.129 51.736C147.155 43.2198 153.639 35.6498 162.015 32.9463C170.391 30.2427 180.387 32.8111 186.061 39.57C187.142 40.7866 188.088 42.1383 189.168 43.4901C189.709 44.166 190.384 44.8419 190.925 45.5178C191.87 46.7344 192.546 48.2213 192.951 49.5731C195.653 56.8727 195.788 64.8482 193.626 72.283C191.735 78.5011 188.088 84.3138 187.682 90.9375C187.412 95.939 189.033 100.941 189.168 105.942C189.168 106.888 189.168 107.97 188.763 108.781C187.953 110.538 186.061 111.484 184.305 112.296C171.066 117.567 155.801 117.297 142.832 111.349" fill="#070100"/>
<path d="M143.508 159.067L154.72 183.94L161.475 203.676H206.73C206.73 203.676 215.511 140.142 215.511 133.248C215.511 126.354 197.949 108.375 191.465 108.375C184.981 108.375 168.499 104.996 158.097 108.375C129.053 117.838 121.623 119.46 143.508 159.067Z" fill="#EF3807"/>
<path d="M154.18 76.0679C154.18 76.0679 146.75 56.7375 149.316 52.0063C151.883 47.4102 175.659 35.5146 183.765 44.166C191.87 52.8173 195.923 72.5533 191.6 84.0434C187.277 95.5335 174.579 100.67 165.527 96.8852C156.476 93.1003 154.18 76.0679 154.18 76.0679Z" fill="#664331"/>
<path d="M162.961 92.83L161.475 109.186L181.063 108.511L178.361 92.83H162.961Z" fill="#664331"/>
<path d="M151.343 335.474C151.343 335.474 150.532 381.569 148.506 403.198C146.48 424.826 140.13 452.538 142.022 456.593C143.913 460.648 158.503 466.461 163.636 456.593C168.77 446.725 159.854 419.419 162.015 405.901C164.176 392.384 175.524 339.664 175.524 339.664L151.343 335.474Z" fill="#664331"/>
<path d="M205.244 339.124C205.244 339.124 210.243 397.385 211.593 410.768C212.944 424.15 215.916 441.183 220.104 442.94C224.292 444.697 239.557 450.24 243.205 442.94C246.852 435.64 232.262 430.774 229.561 419.284C226.859 407.794 226.454 334.257 226.454 334.257L205.244 339.124Z" fill="#664331"/>
<path d="M156.071 93.5058C155.801 90.2615 155.531 87.1524 155.26 83.9082C155.26 83.3675 155.125 82.9619 154.855 82.5564C154.315 82.0157 153.504 82.286 152.829 82.1509C150.802 82.0157 149.857 79.8528 149.316 77.9604C148.776 76.203 148.236 74.3106 148.371 72.4181C148.506 70.5256 149.587 68.6331 151.343 67.9572C153.099 67.2813 155.396 68.4979 155.531 70.2552C156.476 65.6592 157.422 60.6576 160.394 57.0078C165.662 50.5193 176.335 49.1675 179.712 41.4624C181.603 49.3027 184.575 58.2244 192.005 61.3335C190.249 56.1968 188.628 50.9248 185.656 46.1936C182.684 41.5976 178.496 37.5422 173.228 36.1905C170.526 35.3794 167.554 35.3794 164.717 35.5146C159.583 35.7849 154.18 36.7312 150.667 40.381C147.966 43.2197 147.02 47.275 146.75 51.1952C146.344 57.2782 147.56 63.3612 150.127 68.7683" fill="#070100"/>
<path d="M156.341 211.786L125.811 329.256C125.811 329.256 175.389 344.801 200.921 345.071C226.454 345.342 238.342 332.094 238.342 332.094L207.946 197.863L161.475 203.676L156.341 211.786Z" fill="#0029AD"/>
<path d="M168.905 111.214C168.905 111.214 164.852 168.8 167.554 243.418C170.256 318.036 175.929 367.646 175.929 367.646L262.118 351.019C262.118 351.019 232.398 265.857 231.587 229.359C230.776 192.861 231.587 114.053 231.587 114.053L168.905 111.214Z" fill="#F0F2F8"/>
<path d="M129.863 127.841C129.593 128.382 124.46 200.296 125 205.433C125.54 210.57 138.104 216.653 143.778 211.11C149.452 205.568 166.743 192.185 166.743 192.185C166.743 192.185 173.363 193.808 173.633 191.51C173.903 189.212 173.633 176.37 171.066 176.234C168.499 176.099 165.392 174.207 162.826 176.234C160.259 178.262 143.102 189.347 143.102 189.347C143.102 189.347 151.883 144.603 144.453 135.276C137.023 125.948 133.781 121.217 129.863 127.841Z" fill="#664331"/>
<path d="M227.94 177.316C225.913 176.91 222.941 181.101 224.427 189.212C225.913 197.322 232.262 197.728 233.884 197.593C235.505 197.457 239.963 192.456 237.801 185.967" fill="#664331"/>
<path d="M143.237 433.342C143.237 433.342 144.453 443.481 151.883 442.129C159.313 440.777 163.636 432.396 163.636 432.396C163.636 432.396 172.012 460.648 155.125 462C138.239 463.217 141.481 453.484 143.237 433.342Z" fill="#111111"/>
<path d="M233.884 427.395L247.528 442.129C247.528 442.129 249.824 445.644 241.179 447.266C232.533 448.888 215.646 442.534 215.646 442.534L214.836 432.396C214.701 432.396 238.882 439.696 233.884 427.395Z" fill="#111111"/>
<path d="M306.698 432.126V119.865H458V429.422L306.698 432.126Z" fill="#E9EFF4"/>
<path d="M458 119.325H432.198V429.828H458V119.325Z" fill="#DDE3E8"/>
<path d="M420.85 135.952H316.83V175.829H420.85V135.952Z" stroke="#DDE3E8" stroke-width="2" stroke-miterlimit="10"/>
<path d="M420.85 183.804H316.83V223.682H420.85V183.804Z" stroke="#DDE3E8" stroke-width="2" stroke-miterlimit="10"/>
<path d="M420.85 230.441H316.83V270.318H420.85V230.441Z" stroke="#DDE3E8" stroke-width="2" stroke-miterlimit="10"/>
<path d="M420.85 276.672H316.83V316.549H420.85V276.672Z" stroke="#DDE3E8" stroke-width="2" stroke-miterlimit="10"/>
<path d="M420.85 326.146H316.83V366.024H420.85V326.146Z" stroke="#DDE3E8" stroke-width="2" stroke-miterlimit="10"/>
<path d="M357.492 119.325C357.492 119.325 342.632 111.079 338.579 100.941C334.527 90.8023 338.444 80.6639 338.444 80.6639H416.122C416.122 80.6639 433.278 124.191 357.492 119.325Z" fill="#E9EFF4"/>
</g>
<path d="M61.0465 0H0V69.6436H61.0465V0Z" fill="#DDE3E8"/>
<path d="M56.4651 7H6V64.5493H56.4651V7Z" fill="white"/>
<defs>
<clipPath id="clip0">
<rect width="333" height="430" fill="white" transform="translate(125 32)"/>
</clipPath>
</defs>
</svg>
