<svg width="229" height="369" viewBox="0 0 229 369" fill="none" xmlns="http://www.w3.org/2000/svg">
<path d="M180.554 310.726C161.426 301.37 147.646 283.156 140.354 263.181C133.062 243.206 131.732 221.489 132.761 200.27C133.429 186.671 135.026 172.921 139.879 160.162C140.784 157.729 141.864 155.29 141.769 152.719C141.674 150.148 140.051 147.4 137.521 147.025C134.872 146.597 132.552 148.73 131.054 150.951C126.172 158.153 125.342 167.369 121.12 175.015C115.471 185.229 104.471 177.327 94.5769 183.486C92.5166 184.732 90.8178 184.678 89.608 186.771C88.3462 189.041 87.4631 190.478 87.502 193.109C87.9749 212.225 84.0377 226.003 93.3325 266.909C97.9409 287.101 106.432 306.271 115.143 325.081C122.775 341.592 129.334 351.237 142.775 363.437" fill="#89564A"/>
<path d="M116.974 202.142L76.1489 199.38C72.2774 199.114 69.3452 195.77 69.6116 191.899L75.7819 100.862C76.0482 96.9905 79.3919 94.0584 83.2635 94.3248L124.089 97.0861C127.96 97.3525 130.893 100.696 130.626 104.568L124.456 195.604C124.19 199.476 120.846 202.408 116.974 202.142Z" fill="#1D47FC"/>
<path d="M115.969 190.769L77.8418 188.201C75.1432 188.008 73.1263 185.684 73.3191 182.985L78.6338 105.203C78.8266 102.505 81.1509 100.488 83.8495 100.681L121.976 103.249C124.675 103.442 126.692 105.766 126.499 108.465L121.184 186.247C120.989 188.887 118.667 190.962 115.969 190.769Z" fill="white"/>
<path d="M114.859 140.199C112.506 139.876 105.547 141.538 108.535 147.98C111.521 154.365 126.931 159.704 126.931 159.704L141.42 155.95C141.42 155.95 141.968 145.457 137.577 146.965C133.186 148.473 114.859 140.199 114.859 140.199Z" fill="#89564A"/>
<path d="M72.073 133.473C70.0842 133.488 68.5151 135.36 68.238 137.359C67.9588 139.3 68.675 141.263 69.5016 143.046C69.7569 143.622 70.0122 144.198 70.036 144.84C70.0165 145.894 69.1097 146.689 68.4993 147.589C66.162 150.835 67.2697 155.475 69.557 158.784C69.9898 159.411 70.4832 160.095 70.3944 160.859C70.2991 161.448 69.9053 161.872 69.572 162.352C68.2366 164.215 67.8015 166.689 68.4095 168.89C68.7427 169.989 69.3097 171.08 69.236 172.253C69.2122 173.19 68.775 174.025 68.6343 174.967C68.3442 176.616 68.937 178.408 70.151 179.591C70.3328 179.76 70.5752 179.985 70.8673 179.975C71.5144 180.068 71.8996 179.41 72.1096 178.758C73.0013 175.975 72.0017 172.677 73.3089 170.054C74.073 168.563 75.5489 167.339 75.5468 165.7C75.5967 163.885 73.8482 162.487 73.4912 160.745C72.8551 157.784 76.2118 155.202 76.041 152.166C75.9242 150.591 74.8768 149.167 74.9332 147.526C74.9809 145.652 76.5673 144.248 77.5022 142.633C78.5476 140.84 78.9307 138.543 78.0998 136.643C77.3252 134.683 75.2824 133.237 73.181 133.373" fill="#89564A"/>
<rect x="2.87695" y="85.6183" width="73.2013" height="21.2949" rx="2" transform="rotate(-25.6591 2.87695 85.6183)" fill="#F5F5F5"/>
<path d="M20.0385 86.1407L18.2151 86.4316L18.075 85.5174L19.9542 85.3427L19.0338 83.5487L19.8419 83.1605L20.6746 85.0291L21.9641 83.6946L22.5927 84.3807L21.2022 85.6402L22.9355 86.5692L22.5191 87.3803L20.806 86.3311L20.5683 88.2719L19.6772 88.1084L20.0385 86.1407ZM26.6979 82.9416L24.8745 83.2325L24.7344 82.3183L26.6136 82.1436L25.6932 80.3496L26.5013 79.9614L27.334 81.83L28.6235 80.4955L29.2521 81.1816L27.8616 82.4411L29.5949 83.3701L29.1785 84.1812L27.4654 83.132L27.2277 85.0728L26.3366 84.9093L26.6979 82.9416ZM33.3573 79.7425L31.534 80.0334L31.3938 79.1192L33.273 78.9445L32.3527 77.1505L33.1607 76.7623L33.9934 78.6309L35.2829 77.2964L35.9115 77.9825L34.521 79.242L36.2543 80.171L35.8379 80.9821L34.1248 79.9329L33.8871 81.8737L32.996 81.7102L33.3573 79.7425ZM40.0168 76.5434L38.1934 76.8343L38.0532 75.9201L39.9324 75.7454L39.0121 73.9514L39.8202 73.5632L40.6528 75.4318L41.9424 74.0973L42.571 74.7834L41.1804 76.0429L42.9137 76.9719L42.4973 77.783L40.7842 76.7338L40.5465 78.6746L39.6554 78.5111L40.0168 76.5434ZM46.6762 73.3443L44.8528 73.6352L44.7126 72.721L46.5918 72.5463L45.6715 70.7523L46.4796 70.3641L47.3122 72.2327L48.6018 70.8982L49.2304 71.5843L47.8398 72.8438L49.5732 73.7728L49.1567 74.5839L47.4437 73.5347L47.2059 75.4755L46.3148 75.312L46.6762 73.3443Z" fill="#9F9F9F"/>
<rect x="168.179" y="115.263" width="73.2013" height="21.2949" rx="2" transform="rotate(43.7691 168.179 115.263)" fill="#F5F5F5"/>
<path d="M173.72 131.514L172.807 129.909L173.614 129.456L174.438 131.154L175.794 129.662L176.441 130.283L174.984 131.719L176.687 132.457L176.266 133.287L174.598 132.427L174.337 134.377L173.431 134.272L173.812 132.299L171.911 132.759L171.751 131.867L173.72 131.514ZM179.055 136.624L178.142 135.02L178.949 134.567L179.773 136.265L181.129 134.773L181.776 135.393L180.32 136.829L182.022 137.568L181.601 138.397L179.933 137.538L179.672 139.487L178.766 139.382L179.147 137.41L177.246 137.869L177.086 136.978L179.055 136.624ZM184.39 141.735L183.477 140.13L184.284 139.678L185.108 141.376L186.464 139.884L187.112 140.504L185.655 141.94L187.357 142.678L186.936 143.508L185.268 142.649L185.007 144.598L184.102 144.493L184.482 142.521L182.581 142.98L182.421 142.088L184.39 141.735ZM189.725 146.846L188.812 145.241L189.619 144.788L190.443 146.486L191.799 144.994L192.447 145.615L190.99 147.051L192.692 147.789L192.271 148.619L190.603 147.759L190.342 149.709L189.437 149.604L189.817 147.631L187.916 148.091L187.756 147.199L189.725 146.846ZM195.061 151.956L194.148 150.352L194.954 149.899L195.778 151.597L197.134 150.105L197.782 150.725L196.325 152.161L198.027 152.9L197.606 153.729L195.938 152.87L195.677 154.819L194.772 154.714L195.152 152.742L193.251 153.201L193.091 152.31L195.061 151.956Z" fill="#9F9F9F"/>
<path d="M157.901 85.7113C156.312 86.7398 154.827 87.2312 153.447 87.1854C152.066 87.1397 150.963 86.543 150.137 85.3954C149.283 84.2097 149.268 83.0654 150.091 81.9626C149.306 82.0082 148.62 81.9049 148.034 81.6528C147.46 81.4024 147.003 81.0426 146.665 80.5734C146.017 79.6731 145.894 78.7268 146.297 77.7344C146.699 76.7421 147.593 75.8383 148.98 75.0231C150.094 74.3651 151.198 73.9319 152.289 73.7235C153.392 73.5169 154.395 73.5459 155.298 73.8105C156.205 74.0814 156.898 74.5497 157.378 75.2154C157.747 75.729 158.009 76.2389 158.161 76.7451C158.32 77.2468 158.383 77.895 158.348 78.6898L152.723 81.9882C151.172 82.9222 150.732 83.8551 151.403 84.7872C151.918 85.5037 152.691 85.8282 153.721 85.7608C154.75 85.6934 155.85 85.268 157.018 84.4844C159.571 82.8293 161.12 81.0163 161.665 79.0453C162.215 77.0807 161.727 75.0395 160.203 72.9218C159.285 71.6474 158.154 70.7438 156.807 70.2112C155.468 69.6739 153.996 69.549 152.394 69.8365C150.791 70.124 149.184 70.7943 147.574 71.8474C145.947 72.9033 144.718 74.0771 143.886 75.3689C143.061 76.6561 142.679 77.9849 142.742 79.3551C142.802 80.7362 143.309 82.0894 144.263 83.4145C144.674 83.9852 145.155 84.5056 145.705 84.9758C146.26 85.4524 146.785 85.801 147.281 86.0217L146.44 87.1609C145.91 86.9458 145.331 86.5688 144.702 86.0299C144.078 85.4972 143.526 84.8981 143.047 84.2323C141.906 82.6472 141.283 81.0261 141.178 79.3691C141.066 77.7166 141.477 76.1212 142.411 74.5829C143.342 73.0555 144.733 71.684 146.582 70.4683C148.38 69.2892 150.227 68.5517 152.122 68.2559C154.024 67.9555 155.785 68.1361 157.407 68.7976C159.035 69.4546 160.395 70.5407 161.486 72.0561C162.622 73.6349 163.242 75.2442 163.344 76.884C163.446 78.5238 163.027 80.101 162.086 81.6158C161.146 83.1305 159.751 84.4956 157.901 85.7113ZM150.068 76.5353C149.104 77.0947 148.472 77.6746 148.173 78.2751C147.878 78.882 147.932 79.4644 148.334 80.0224C148.607 80.4028 149.032 80.651 149.606 80.7669C150.185 80.8892 150.858 80.8476 151.624 80.6423L151.717 80.5902L156.816 77.5838C156.744 77.0964 156.562 76.6498 156.27 76.244C155.736 75.5022 154.916 75.1587 153.81 75.2137C152.708 75.275 151.461 75.7155 150.068 76.5353Z" fill="#B5B5B5"/>
<rect x="107.877" y="4.24081" width="92.2168" height="42.9647" rx="2" transform="rotate(-2.1181 107.877 4.24081)" fill="#EDEDED"/>
<circle cx="153.177" cy="24.0624" r="13.099" transform="rotate(-2.1181 153.177 24.0624)" fill="#C4C4C4"/>
<path d="M155.264 27.1504C155.246 26.6715 155.062 26.2744 154.712 25.959C154.367 25.6435 153.791 25.3677 152.985 25.1317C151.864 24.8344 151.038 24.4245 150.508 23.9021C149.983 23.3742 149.705 22.6913 149.674 21.8534C149.642 20.9998 149.864 20.2906 150.338 19.7258C150.817 19.1608 151.49 18.8102 152.355 18.674L152.292 16.9642L153.455 16.9212L153.519 18.6388C154.398 18.7261 155.09 19.0679 155.597 19.6642C156.109 20.2603 156.385 21.0918 156.424 22.1588L154.988 22.2119C154.961 21.478 154.765 20.9016 154.4 20.4825C154.035 20.0634 153.556 19.8648 152.963 19.8867C152.344 19.9096 151.876 20.0885 151.56 20.4233C151.244 20.7529 151.096 21.204 151.117 21.7765C151.137 22.3074 151.324 22.7253 151.68 23.03C152.04 23.3294 152.621 23.5946 153.421 23.8256C154.227 24.0512 154.857 24.3119 155.311 24.6079C155.77 24.8984 156.111 25.2454 156.334 25.6489C156.563 26.0521 156.688 26.5296 156.708 27.0813C156.74 27.961 156.501 28.6786 155.99 29.2343C155.484 29.7899 154.757 30.1347 153.808 30.2688L153.863 31.76L152.708 31.8027L152.653 30.3116C151.681 30.2589 150.909 29.9435 150.335 29.3653C149.766 28.7818 149.463 27.9747 149.424 26.9442L150.869 26.8908C150.896 27.6142 151.106 28.1641 151.5 28.5404C151.895 28.9167 152.441 29.092 153.138 29.0662C153.82 29.041 154.35 28.8572 154.728 28.5149C155.107 28.1725 155.285 27.7177 155.264 27.1504Z" fill="#969696"/>
</svg>
