<svg xmlns="http://www.w3.org/2000/svg" xmlns:xlink="http://www.w3.org/1999/xlink" width="47.045" height="47.106" viewBox="0 0 47.045 47.106">
  <defs>
    <filter id="phone-blue" x="0" y="0" width="47.045" height="47.106" filterUnits="userSpaceOnUse">
      <feOffset dy="3" input="SourceAlpha"/>
      <feGaussianBlur stdDeviation="3" result="blur"/>
      <feFlood flood-opacity="0.161"/>
      <feComposite operator="in" in2="blur"/>
      <feComposite in="SourceGraphic"/>
    </filter>
  </defs>
  <g transform="matrix(1, 0, 0, 1, 0, 0)" filter="url(#phone-blue)">
    <path id="phone-blue-2" data-name="phone-blue" d="M28.823,21.361,24.761,17.3a2.7,2.7,0,0,0-4.5,1.015,2.764,2.764,0,0,1-3.191,1.741c-2.9-.725-6.818-4.5-7.544-7.544A2.629,2.629,0,0,1,11.27,9.321a2.7,2.7,0,0,0,1.015-4.5L8.223.762a2.9,2.9,0,0,0-3.917,0L1.55,3.518c-2.756,2.9.29,10.59,7.108,17.408s14.507,10.01,17.408,7.108l2.756-2.756A2.9,2.9,0,0,0,28.823,21.361Z" transform="translate(8.46 6)" fill="#0a5990"/>
  </g>
</svg>
