<svg width="558" height="474" viewBox="0 0 558 474" fill="none" xmlns="http://www.w3.org/2000/svg">
<path d="M539.8 82.1751C521.4 56.4751 485.6 44.6751 455.5 54.3751C449.6 56.2751 443.8 58.9751 437.6 59.5751C428.1 60.5751 418.5 56.5751 409.1 58.0751C400.1 59.4751 392.5 65.4751 386.2 71.9751C379.9 78.4751 374.1 85.7751 366.6 90.8751C360.7 94.8751 353.9 97.3751 348.1 101.475C342.3 105.575 337.1 111.875 337.5 118.975C337.9 126.175 343.8 132.075 350.5 134.675C357.2 137.275 364.6 137.175 371.8 137.075C396.7 136.675 421.6 136.375 446.3 139.175C459.3 140.675 472.2 142.975 485.2 142.575C498.2 142.175 511.7 138.775 521.5 130.175C524.3 127.675 526.8 124.875 530.1 123.075C535 120.475 540.9 120.675 546.1 118.575C554.2 115.175 559 105.275 556.7 96.7751C554.3 88.2751 545.1 82.2751 536.4 83.5751" fill="#E8EBEF"/>
<path d="M487.9 451.675C487.1 440.075 484.5 426.975 474.5 421.175C469.8 418.375 463.8 417.575 459.9 413.675C456.4 410.175 455.4 404.875 453 400.475C446.1 387.775 429.4 384.575 415 384.475C409.5 384.375 403.9 384.575 398.5 385.875C376.8 390.875 362 411.975 340.7 418.375C333.7 420.475 326.4 420.875 319.3 422.275C308.9 424.275 298.7 428.275 290.7 435.275C282.7 442.275 277.2 452.375 277.2 462.975C277.2 464.875 277.4 466.875 278.7 468.275C279.8 469.575 281.6 470.075 283.2 470.475C289.2 471.875 295.3 472.275 301.5 472.675C347.8 475.475 394.4 473.775 440.4 467.575C455.9 465.475 471.5 462.875 487.2 462.975" fill="#E8EBEF"/>
<path d="M0 451.675C0.8 440.075 3.4 426.975 13.4 421.175C18.1 418.375 24.1 417.575 28 413.675C31.5 410.175 32.5 404.875 34.9 400.475C41.8 387.775 58.5 384.575 72.9 384.475C78.4 384.375 84 384.575 89.4 385.875C111.1 390.875 125.9 411.975 147.2 418.375C154.2 420.475 161.5 420.875 168.6 422.275C179 424.275 189.2 428.275 197.2 435.275C205.2 442.275 210.7 452.375 210.7 462.975C210.7 464.875 210.5 466.875 209.2 468.275C208.1 469.575 206.3 470.075 204.7 470.475C198.7 471.875 192.6 472.275 186.4 472.675C140.1 475.475 93.5 473.775 47.5 467.575C32 465.475 16.4 462.875 0.7 462.975" fill="#E8EBEF"/>
<path d="M341.4 361.875H220.5V473.875H341.4V361.875Z" fill="#E1E6EA"/>
<path d="M220.6 412.475H99.7V473.775H220.6V412.475Z" fill="#D2D7DB"/>
<path d="M427.5 412.475H340.9V473.775H427.5V412.475Z" fill="#D2D7DB"/>
<g clip-path="url(#clip0)">
<path d="M196.2 124.431C204.411 123.236 212.986 124.327 220.625 127.497C228.265 130.719 235.073 135.968 243.076 137.943C250.144 139.71 257.523 138.774 264.799 138.774C272.074 138.774 279.87 139.918 285.17 144.855C285.534 145.167 285.898 145.582 285.898 146.05C285.898 146.778 285.17 147.193 284.495 147.453C279.454 149.584 274.101 150.935 268.644 151.351C264.799 151.663 260.901 151.559 257.211 152.546C253.002 153.637 249.312 156.08 245.466 158.055C234.345 163.771 221.197 165.85 209.14 162.524C204.723 161.329 200.514 159.406 195.992 158.47C190.847 157.379 184.975 157.379 181.389 153.533C179.57 151.559 178.687 148.856 177.959 146.258C176.816 142.308 175.673 138.203 176.036 134.097C176.4 129.992 178.427 125.782 182.169 123.963C186.846 121.729 192.354 123.807 197.084 125.886" fill="#EBEEF2"/>
<path d="M317.696 126.818C312.604 138.218 314.736 159.354 314.736 159.354L258.607 161.135C258.607 161.135 268.317 148.667 261.686 131.449C258.726 123.85 253.515 116.844 248.305 110.076L255.528 85.6143C261.804 92.9764 270.567 99.1511 278.738 99.3886C290.934 99.7448 308.697 100.576 319.828 92.2639L327.88 111.738C323.735 117.319 319.709 122.425 317.696 126.818Z" fill="#1636BD"/>
<path d="M255.647 85.6143L248.423 110.076C241.911 101.407 235.753 92.9764 234.806 83.8331C233.148 67.3277 245.7 47.26 245.7 47.26C245.7 47.26 259.318 43.2227 263.699 39.4229C260.147 43.2227 247.713 57.2345 247.121 66.9715C247.003 72.1962 250.437 79.3209 255.647 85.6143Z" fill="#89564A"/>
<path d="M343.511 81.577C342.563 92.5014 334.985 102.713 328.117 111.738L320.065 92.264C322.906 90.1266 325.275 87.3955 327.051 83.9519C335.932 66.8528 327.998 53.1972 327.998 53.1972C327.998 53.1972 319.591 44.8852 317.223 42.5103C314.854 40.1354 314.499 39.4229 314.499 39.4229L321.485 41.7978L335.695 44.1727C335.577 44.1727 345.05 63.7654 343.511 81.577Z" fill="#89564A"/>
<path d="M294.842 85.8518C294.842 85.8518 300.052 80.5083 300.052 75.1649C300.052 69.8214 287.027 64.1217 280.514 70.2964C274.001 76.471 283.829 84.4269 283.829 84.4269L294.842 85.8518Z" fill="#090909"/>
<path d="M281.343 80.7458C281.343 80.7458 279.803 78.4897 278.382 80.7458C276.961 83.0019 279.685 85.7331 281.698 85.4956C281.698 85.4956 281.106 88.7017 284.54 92.0265C284.54 92.0265 283.83 97.4887 282.645 100.457C281.461 103.426 285.132 107.107 290.106 106.513C295.079 105.92 296.618 101.17 296.618 101.17C296.618 101.17 293.184 96.0638 293.184 92.3827C293.184 92.3827 296.5 89.6516 296.618 85.8518C296.618 85.8518 298.75 87.5142 299.579 83.3582C300.408 79.2021 297.921 80.3896 297.21 80.7458C296.5 81.102 295.553 82.052 295.553 82.052L295.908 76.3523H281.816L281.343 80.7458Z" fill="#89564A"/>
<path d="M286.079 83.002C286.472 83.002 286.79 82.683 286.79 82.2895C286.79 81.896 286.472 81.577 286.079 81.577C285.687 81.577 285.369 81.896 285.369 82.2895C285.369 82.683 285.687 83.002 286.079 83.002Z" fill="#191919"/>
<path d="M291.763 83.002C292.156 83.002 292.474 82.683 292.474 82.2895C292.474 81.896 292.156 81.577 291.763 81.577C291.371 81.577 291.053 81.896 291.053 82.2895C291.053 82.683 291.371 83.002 291.763 83.002Z" fill="#191919"/>
<path d="M288.803 89.4141C287.619 89.4141 287.145 88.1079 287.027 87.2767L287.619 87.158C287.619 87.2767 287.856 88.8204 288.921 88.7017C290.106 88.5829 290.224 87.158 290.224 87.158H290.816C290.816 87.8705 290.342 89.1766 289.04 89.2954C288.921 89.4141 288.803 89.4141 288.803 89.4141Z" fill="#191919"/>
<path d="M371.338 61.0343C371.338 61.0343 334.985 36.6919 281.106 42.8665C227.227 49.0412 204.61 62.2218 204.61 62.2218L197.268 17.3366C197.268 17.3366 221.78 -0.831207 292.829 0.118744C363.878 1.06869 377.733 17.0991 377.733 17.0991L371.338 61.0343Z" fill="#FEB91E"/>
<path d="M201.768 29.686L159.968 55.8096L183.295 67.684L175.125 94.6389L217.991 69.1089L215.03 29.686H201.768Z" fill="#FEB91E"/>
<path d="M363.878 32.0609L359.734 65.5466L406.507 85.1394L389.1 54.5034L413.968 43.579L365.654 25.5299L363.878 32.0609Z" fill="#FEB91E"/>
<path d="M372.759 62.3405L359.734 66.4966L361.51 55.3347L372.759 62.3405Z" fill="#FE891E"/>
<path d="M203.189 61.7468L217.991 69.1089L216.807 56.4034L203.189 61.7468Z" fill="#FE891E"/>
<path d="M261.686 161.017C261.686 161.017 246.647 313.959 245.818 320.252C244.989 326.546 265.949 324.171 266.778 322.983C267.607 321.796 285.369 211.483 285.369 211.483L296.382 320.371L316.157 321.202L312.249 159.592L261.686 161.017Z" fill="#EE5050"/>
<path d="M249.371 323.815L247.595 339.489H260.028L262.752 323.815C262.87 323.815 252.45 325.477 249.371 323.815Z" fill="#FB7E60"/>
<path d="M246.884 336.758C246.884 336.758 243.332 347.801 243.095 348.988C242.858 350.176 239.187 359.082 241.319 361.456C243.45 363.831 259.436 362.644 259.436 362.644L260.265 338.301L246.884 336.758Z" fill="#1C1C1C"/>
<path d="M313.552 319.896L315.328 335.57H302.894L300.171 319.896C300.052 319.896 310.473 321.558 313.552 319.896Z" fill="#FB7E60"/>
<path d="M315.933 333C315.933 333 319.375 345.653 319.604 347.014C319.834 348.374 323.391 358.578 321.325 361.299C319.26 364.02 303.771 362.66 303.771 362.66L302.968 334.769L315.933 333Z" fill="#1C1C1C"/>
</g>
<defs>
<clipPath id="clip0">
<rect width="254" height="363" fill="white" transform="translate(159.968)"/>
</clipPath>
</defs>
</svg>
