<svg width="411" height="189" viewBox="0 0 411 189" fill="none" xmlns="http://www.w3.org/2000/svg">
<path d="M24.5711 189C24.5711 189 32.8486 189 41.1261 180.302C49.4036 171.605 52.8889 162.994 52.8889 162.994C52.8889 162.994 163.982 165.255 173.566 164.125C183.151 162.994 183.586 153.427 183.586 139.075C183.586 124.724 180.537 69.9291 179.665 51.2292C178.794 32.5292 167.031 37.052 157.882 37.3999C148.734 37.7478 20.2145 41.4878 11.5013 42.8794C2.78815 44.2711 0.174197 50.7943 0.174197 58.6222C0.174197 66.4501 0.174197 137.771 0.174197 149.078C0.174197 160.385 -2.43975 160.907 13.6796 163.081C29.799 165.168 38.5121 164.212 38.5121 164.212C38.5121 164.212 32.4129 185.956 24.5711 189Z" fill="#DDE3E8"/>
<path d="M386.429 181.781C386.429 181.781 378.151 181.781 369.874 173.083C361.596 164.386 358.111 155.688 358.111 155.688C358.111 155.688 247.018 157.949 237.434 156.819C227.849 155.688 227.414 146.121 227.414 131.769C227.414 117.418 230.463 62.6231 231.334 43.9232C232.206 25.2232 243.969 29.746 253.117 30.0939C262.266 30.4418 390.785 34.1818 399.499 35.5734C408.212 36.965 410.826 43.4883 410.826 51.3162C410.826 59.144 410.826 130.465 410.826 141.772C410.826 153.079 413.44 153.601 397.32 155.775C381.201 157.949 372.488 156.906 372.488 156.906C372.488 156.906 378.587 178.737 386.429 181.781Z" fill="#DDE3E8"/>
<path d="M358.808 151.687C358.721 153.253 358.547 154.992 357.327 155.949C356.543 156.471 355.584 156.645 354.626 156.732C340.685 158.036 326.744 158.297 312.715 157.428C311.321 157.341 309.753 157.167 308.707 156.21C307.313 154.818 307.575 152.644 307.836 150.73C309.579 138.38 308.185 125.681 303.828 113.939C296.073 118.723 287.883 123.681 279.083 125.507C278.211 118.636 275.859 111.417 274.029 106.459C276.556 104.111 278.734 101.241 280.477 98.2835C284.398 91.8472 287.012 84.6282 291.542 78.5398C298.6 69.1463 310.102 63.3189 321.777 63.145C327.441 63.058 333.366 64.3626 337.722 67.9287C340.946 70.6249 343.124 74.3649 344.954 78.1049C350.269 88.7161 353.842 100.197 355.671 111.852" fill="#1636BD"/>
<path d="M354.19 110.634L342.602 116.636C342.602 116.636 344.606 148.034 343.734 157.949L354.539 156.732C354.539 156.732 357.24 127.769 354.19 110.634Z" fill="#89564A"/>
<path d="M324.217 68.2766C323.694 70.0161 322.387 71.4077 320.906 72.5384C318.553 74.3649 315.939 75.8435 313.064 76.7133C311.844 77.0612 310.363 77.3221 309.492 76.4524C308.882 75.8435 308.795 74.8868 308.795 74.104C308.62 70.6249 308.359 67.1459 308.185 63.5798C308.185 62.884 308.098 62.1012 307.575 61.5794C306.703 60.6226 305.135 61.0575 303.741 61.1445C299.297 61.4054 296.509 56.6217 295.028 52.5338C292.501 45.4887 290.845 37.6608 292.414 30.5288C295.115 30.1808 306.268 29.0502 308.01 29.3111C310.014 29.572 309.753 34.0948 312.106 36.6171C314.458 39.1394 316.201 38.8785 316.201 38.8785C316.201 38.8785 314.72 28.9632 318.553 30.6157C322.3 32.2683 323.52 37.4869 322.648 40.3571C321.777 43.2273 318.292 45.4017 318.292 45.4017L322.91 47.4892C321.342 49.9245 319.947 52.3599 320.209 55.1431C320.557 59.7529 325.437 63.7538 324.217 68.2766Z" fill="#89564A"/>
<path d="M325.088 43.9232C324.391 45.1408 323.607 46.2715 322.823 47.4892L318.205 45.4018C318.205 45.4018 320.557 43.4013 321.429 40.4441C322.3 37.5739 322.91 36.6171 320.122 34.5297C316.811 32.0943 316.114 38.7915 316.114 38.7915C316.114 38.7915 314.371 39.0525 312.018 36.5301C309.666 34.0078 310.014 29.485 307.923 29.2241C306.181 28.9632 295.028 30.0939 292.327 30.4418C292.762 28.4413 293.459 26.5278 294.418 24.7013C294.418 24.7013 305.396 7.0451 323.258 18.0041C331.187 22.9618 329.793 36.0083 325.088 43.9232Z" fill="#282828"/>
<path d="M36.0725 92.4561C36.0725 92.4561 22.3928 109.416 22.1314 112.461C21.8701 115.505 66.83 155.949 66.83 155.949L67.9627 144.816C67.9627 144.816 42.2589 112.2 41.5618 111.069C40.8647 109.938 49.8393 100.197 49.8393 100.197L36.0725 92.4561Z" fill="#89564A"/>
<path d="M99.0687 94.4565C99.3301 95.3263 106.475 136.727 105.604 141.424C104.732 146.121 106.736 164.038 106.736 164.038H118.063C118.063 164.038 112.4 105.937 112.4 102.458C112.4 98.9793 110.831 89.1509 110.831 89.1509L99.0687 94.4565Z" fill="#89564A"/>
<path d="M110.483 64.1017C110.483 64.1017 101.421 54.9692 96.5419 55.665C91.6625 56.4478 68.3984 53.8385 64.0418 55.578C59.6852 57.4045 30.9318 91.8472 30.9318 91.8472L48.6195 106.72L62.5606 98.8054C62.5606 98.8054 65.7844 145.251 62.2992 154.035C58.8139 162.82 58.8139 162.82 58.8139 162.82H108.479C108.479 162.82 100.027 126.29 100.027 118.462C100.027 110.634 102.293 98.1965 102.293 98.1965L114.23 94.7175C114.23 94.8044 115.362 71.3208 110.483 64.1017Z" fill="#EE5050"/>
<path d="M105.778 20.6134C104.732 15.8297 102.467 10.959 98.1103 8.69765C96.1062 7.65393 93.8408 7.30603 91.5754 7.0451C87.6545 6.52324 83.6464 6.26231 79.9869 7.74091C76.6759 9.04556 73.9748 11.8288 72.4064 15.0469C70.838 18.2651 70.4024 22.0051 70.7509 25.5711C71.5351 32.8771 75.8917 39.5743 82.078 43.4883C78.9413 49.6636 73.5391 57.9264 73.5391 57.9264C73.5391 57.9264 76.2402 66.8849 83.6464 67.8417C90.9655 68.7115 93.5794 58.0133 93.5794 58.0133L92.3596 47.7501C93.1438 47.9241 94.0151 48.011 94.8864 48.098C97.1518 48.272 99.5044 47.9241 101.334 46.6194C103.164 45.2278 104.209 43.0534 104.907 40.792C106.911 34.2688 107.259 27.3106 105.778 20.6134ZM82.6008 42.7924L82.2523 42.4445C82.4266 42.5315 82.5137 42.6185 82.6008 42.7924C82.6008 42.7055 82.6008 42.7055 82.6008 42.7924Z" fill="#89564A"/>
<path d="M73.1034 11.3939C72.145 9.30649 71.6222 6.87115 70.4024 4.87069C68.6597 2.00046 65.3487 0.0869765 61.9506 0C61.3407 0 60.7308 0 60.208 0.173953C58.1168 0.782789 56.7227 2.69627 55.7643 4.69673C53.9345 8.34975 52.976 12.4376 52.8889 16.4386C52.8889 17.6562 52.976 18.9609 53.586 20.0046C54.5444 21.5702 56.6356 22.179 58.4653 21.9181C60.2951 21.6572 61.9506 20.8744 63.6061 20.0046C65.8715 18.7869 68.0498 17.6562 70.3152 16.4386C70.9252 16.0907 71.5351 15.7428 72.0579 15.2209C73.2777 13.8293 73.1034 11.7418 72.7549 10.0023" fill="#282828"/>
<path d="M102.293 11.9158C102.293 11.9158 95.5834 20.3525 86.2603 25.919C76.9372 31.4855 71.6222 32.2683 71.6222 32.2683C71.6222 32.2683 66.9171 19.3958 70.7509 13.7423C74.5847 8.08882 91.0526 -4.76837e-07 102.293 11.9158Z" fill="#282828"/>
<path d="M79.8126 34.4427C82.6518 34.4427 84.9534 32.1452 84.9534 29.3111C84.9534 26.477 82.6518 24.1795 79.8126 24.1795C76.9734 24.1795 74.6718 26.477 74.6718 29.3111C74.6718 32.1452 76.9734 34.4427 79.8126 34.4427Z" fill="#89564A"/>
<path d="M318.728 44.1841C321.567 44.1841 323.868 41.8866 323.868 39.0525C323.868 36.2183 321.567 33.9208 318.728 33.9208C315.888 33.9208 313.587 36.2183 313.587 39.0525C313.587 41.8866 315.888 44.1841 318.728 44.1841Z" fill="#89564A"/>
<path d="M300.778 42.7055C301.308 42.7055 301.737 42.0045 301.737 41.1399C301.737 40.2752 301.308 39.5743 300.778 39.5743C300.249 39.5743 299.82 40.2752 299.82 41.1399C299.82 42.0045 300.249 42.7055 300.778 42.7055Z" fill="#1C1B1A"/>
<path d="M293.982 43.5752C294.511 43.5752 294.941 42.8743 294.941 42.0097C294.941 41.145 294.511 40.4441 293.982 40.4441C293.453 40.4441 293.024 41.145 293.024 42.0097C293.024 42.8743 293.453 43.5752 293.982 43.5752Z" fill="#1C1B1A"/>
<path d="M298.339 52.8817C298.164 52.8817 298.077 52.8817 297.903 52.7947C296.335 52.3599 295.376 50.3594 295.376 50.2724L295.812 50.0985C295.812 50.0985 296.683 52.012 298.077 52.3599C298.513 52.4468 298.949 52.3599 299.297 52.0989C299.994 51.5771 300.604 50.3594 300.604 49.4026H301.04C301.04 50.4464 300.343 51.751 299.559 52.4468C299.123 52.7078 298.687 52.8817 298.339 52.8817Z" fill="#191919"/>
<path d="M104.819 28.5283C105.349 28.5283 105.778 27.8274 105.778 26.9627C105.778 26.0981 105.349 25.3971 104.819 25.3971C104.29 25.3971 103.861 26.0981 103.861 26.9627C103.861 27.8274 104.29 28.5283 104.819 28.5283Z" fill="#1C1B1A"/>
<path d="M98.1102 29.3111C98.6396 29.3111 99.0687 28.6102 99.0687 27.7455C99.0687 26.8809 98.6396 26.1799 98.1102 26.1799C97.5809 26.1799 97.1518 26.8809 97.1518 27.7455C97.1518 28.6102 97.5809 29.3111 98.1102 29.3111Z" fill="#1C1B1A"/>
<path d="M102.38 38.6176C102.205 38.6176 102.118 38.6176 101.944 38.5306C100.376 38.0957 99.4172 36.0953 99.4172 36.0083L99.8529 35.8343C99.8529 35.8343 100.724 37.7478 102.118 38.0957C102.554 38.1827 102.99 38.0957 103.338 37.8348C104.035 37.3129 104.645 36.0953 104.645 35.1385H105.081C105.081 36.1822 104.384 37.4869 103.6 38.1827C103.164 38.4436 102.815 38.6176 102.38 38.6176Z" fill="#191919"/>
<path d="M273.942 106.546C270.892 109.33 267.407 111.504 263.312 112.113C259.565 112.722 255.644 112.026 251.985 111.156C248.499 110.286 244.927 109.243 241.877 107.242C238.566 105.155 234.907 102.545 232.119 101.067C231.944 99.8491 229.94 98.9793 229.331 97.5877C228.895 96.7179 228.459 95.8482 227.588 95.5002C227.239 95.3263 226.629 95.4133 226.542 95.7612C226.455 95.9351 226.542 96.1091 226.542 96.37C226.804 97.5007 227.239 98.7184 227.762 99.7621C227.762 99.8491 227.849 99.936 227.849 100.023C227.849 100.11 228.024 100.284 228.198 100.458C228.111 100.545 228.111 100.719 228.111 100.893C227.414 100.806 226.281 100.023 225.758 99.7621C223.667 98.6314 221.402 97.7616 219.049 97.1528C218.613 97.0658 218.178 96.9788 217.829 97.2398C217.393 97.5007 217.306 98.1095 217.481 98.5444C217.655 98.9793 218.003 99.3272 218.352 99.6751C219.659 100.719 221.14 101.415 222.621 102.11C223.231 102.371 223.231 102.284 223.667 102.719C222.97 103.067 222.621 102.98 221.837 102.893C219.136 102.458 216.958 101.937 214.17 101.502C213.821 101.415 212.95 101.85 212.688 102.11C212.34 102.371 212.427 102.893 212.688 103.241C212.95 103.589 213.298 103.763 213.734 103.85C216.261 104.894 219.049 105.416 221.576 106.372C221.663 106.372 221.75 106.459 221.837 106.546C221.837 106.72 221.663 106.807 221.576 106.894C220.704 107.155 219.746 106.981 218.875 106.894C217.655 106.807 216.348 106.807 215.128 106.894C214.867 106.894 214.605 106.981 214.431 107.155C214.082 107.503 214.17 108.112 214.605 108.46C214.954 108.808 215.477 108.895 215.999 108.895C217.916 109.156 219.833 109.416 221.75 109.59C222.186 109.677 222.709 109.764 222.709 110.199C222.796 110.634 222.273 110.895 221.837 110.982C220.617 111.33 219.398 111.678 218.265 112.026C217.742 112.2 217.045 112.548 217.132 113.07C217.219 113.504 217.742 113.765 218.178 113.852C219.397 114.113 220.617 114.026 221.837 113.939C223.928 113.765 226.107 113.678 228.198 113.33C228.198 113.765 228.198 113.939 228.285 113.939C232.032 113.243 235.865 114.461 239.351 115.853C250.329 120.202 261.134 126.464 272.983 126.29C275.162 126.203 277.34 125.942 279.431 125.507C278.124 118.723 275.772 111.504 273.942 106.546Z" fill="#89564A"/>
</svg>
