<?xml version="1.0" encoding="utf-8"?>
<!-- Generator: Adobe Illustrator 19.0.0, SVG Export Plug-In . SVG Version: 6.00 Build 0)  -->
<svg version="1.1" id="Layer_1" xmlns="http://www.w3.org/2000/svg" xmlns:xlink="http://www.w3.org/1999/xlink" x="0px" y="0px"
	 viewBox="0 0 548.2 560" style="enable-background:new 0 0 548.2 560;" xml:space="preserve">
<style type="text/css">
	.st0{fill:#1C46DE;}
	.st1{fill:#FFFFFF;}
</style>
<path id="XMLID_193_" class="st0" d="M-2425.9,170.1c-44.5,0-88.1,29.7-88.1,82.9v135.3c0,6.8,5.7,12.4,12.5,12.4
	s12.5-5.5,12.5-12.4v-71.9c16,16.7,38.3,27.1,63,27.1c47.8,0,86.8-38.9,86.8-86.7S-2378.1,170.1-2425.9,170.1z M-2425.9,318.7
	c-34.2,0-61.9-27.8-61.9-61.9s27.8-61.9,61.9-61.9s61.9,27.8,61.9,61.9S-2391.8,318.7-2425.9,318.7z"/>
<path id="XMLID_200_" class="st0" d="M-1844.5,274.6c0-39.4-32.1-71.5-71.5-71.5c-39.4,0-71.5,32.1-71.5,71.5
	c0,39.4,32.1,71.5,71.5,71.5c17.5,0,33.6-6.3,46-16.9l-0.3,17.9c-0.1,6.8,5.5,12.9,12.2,12.9c0.1,0,0.1,0,0.2,0
	c6.7,0,12.3-5.8,12.4-12.6l1-60C-1844.5,286-1844.5,277.7-1844.5,274.6z M-1916,321.3c-25.7,0-46.7-20.9-46.7-46.7
	c0-25.7,20.9-46.7,46.7-46.7c25.7,0,46.7,20.9,46.7,46.7C-1869.3,300.4-1890.2,321.3-1916,321.3z"/>
<path id="XMLID_204_" class="st0" d="M-2182.9,273.9c0-39.4-32.1-71.5-71.5-71.5c-39.4,0-71.5,32.1-71.5,71.5s32.1,71.5,71.5,71.5
	c17.5,0,33.6-6.3,46-16.9l-0.3,18.2c-0.1,6.8,4.9,13.2,12.2,13.2c0.1,0,0.1,0,0.2,0c7.8,0,12.3-6.2,12.4-13l1-60.2
	C-2182.9,285.5-2182.9,276.9-2182.9,273.9z M-2254.4,320.6c-25.7,0-46.7-20.9-46.7-46.7c0-25.7,20.9-46.7,46.7-46.7
	s46.7,20.9,46.7,46.7C-2207.7,299.7-2228.7,320.6-2254.4,320.6z"/>
<path id="XMLID_186_" class="st0" d="M-2016,265.8v-60.5c0-6.8-5.7-12.4-12.5-12.4s-12.5,5.5-12.5,12.4V276
	c-3,25.1-25.1,44.6-51.3,44.6c-28.5,0-51.7-23.1-51.7-51.5v-63.8c0-6.8-5.7-12.4-12.5-12.4s-12.5,5.5-12.5,12.4v63.8
	c0,42,34.5,76.2,76.6,76.2c19.7,0,37.4-7.5,51.4-19.7v7.3c0,10.5-5.2,25.9-19.9,34.8c-19.9,12.1-51.4,8-88.7-11.5
	c-6.1-3.2-13.5-0.8-16.7,5.3c-3.2,6.1-0.8,13.5,5.3,16.7c30.1,15.7,54.1,21.1,72.9,21.1c17.6,0,30.8-4.8,40.2-10.5
	c23.5-14.2,31.9-39,31.9-56v-55.4C-2016,274.8-2016,266.9-2016,265.8z"/>
<path id="XMLID_192_" class="st0" d="M-1993.3,207h19.1c0,0,16.2-24.2,10.5-36.6s-22.2-13.4-32.7-4.9S-2002.8,194-1993.3,207z"/>
<path id="XMLID_189_" class="st0" d="M-1674.1,207.8c-20.2-0.4-38.3,3.9-51.9,21.8c-19.5-24.1-40-23.8-51.6-20.9
	c-26.1,6.6-44.4,27.1-44.4,57.5v80c0,6.8,5.7,12.4,12.5,12.4s12.5-5.5,12.5-12.4v-80c0-19.3,11.4-32.4,25.6-33.5
	c16.3-1.3,33.4,6.5,33.4,30.1v83.5c0,6.8,5.7,12.4,12.5,12.4s12.5-5.5,12.5-12.4v-83.7c0-20,17.6-31.4,31-30.7
	c15.1,0.8,30,9.3,30,34.3v78.1c0,6.8,5.7,12.4,12.5,12.4s12.5-5.5,12.5-12.4v-78.1C-1627,229-1648.2,208.3-1674.1,207.8z"/>
<path id="XMLID_37_" class="st1" d="M-2424.9,750.1c-44.5,0-88.1,29.7-88.1,82.9v135.3c0,6.8,5.7,12.4,12.5,12.4s12.5-5.5,12.5-12.4
	v-71.9c16,16.7,38.3,27.1,63,27.1c47.8,0,86.8-38.9,86.8-86.7S-2377.1,750.1-2424.9,750.1z M-2424.9,898.7
	c-34.2,0-61.9-27.8-61.9-61.9c0-34.2,27.8-61.9,61.9-61.9s61.9,27.8,61.9,61.9C-2363,870.9-2390.8,898.7-2424.9,898.7z"/>
<path id="XMLID_34_" class="st1" d="M-1843.5,854.6c0-39.4-32.1-71.5-71.5-71.5c-39.4,0-71.5,32.1-71.5,71.5
	c0,39.4,32.1,71.5,71.5,71.5c17.5,0,33.6-6.3,46-16.9l-0.3,17.9c-0.1,6.8,5.5,12.9,12.2,12.9c0.1,0,0.1,0,0.2,0
	c6.7,0,12.3-5.8,12.4-12.6l1-60C-1843.5,866-1843.5,857.7-1843.5,854.6z M-1915,901.3c-25.7,0-46.7-20.9-46.7-46.7
	c0-25.7,20.9-46.7,46.7-46.7c25.7,0,46.7,20.9,46.7,46.7C-1868.3,880.4-1889.2,901.3-1915,901.3z"/>
<path id="XMLID_31_" class="st1" d="M-2181.9,853.9c0-39.4-32.1-71.5-71.5-71.5c-39.4,0-71.5,32.1-71.5,71.5
	c0,39.4,32.1,71.5,71.5,71.5c17.5,0,33.6-6.3,46-16.9l-0.3,18.2c-0.1,6.8,4.9,13.2,12.2,13.2c0.1,0,0.1,0,0.2,0
	c7.8,0,12.3-6.2,12.4-13l1-60.2C-2181.9,865.5-2181.9,856.9-2181.9,853.9z M-2253.4,900.6c-25.7,0-46.7-20.9-46.7-46.7
	c0-25.7,20.9-46.7,46.7-46.7s46.7,20.9,46.7,46.7C-2206.7,879.7-2227.7,900.6-2253.4,900.6z"/>
<path id="XMLID_30_" class="st1" d="M-2015,845.8v-60.5c0-6.8-5.7-12.4-12.5-12.4s-12.5,5.5-12.5,12.4V856
	c-3,25.1-25.1,44.6-51.3,44.6c-28.5,0-51.7-23.1-51.7-51.5v-63.8c0-6.8-5.7-12.4-12.5-12.4s-12.5,5.5-12.5,12.4v63.8
	c0,42,34.5,76.2,76.6,76.2c19.7,0,37.4-7.5,51.4-19.7v7.3c0,10.5-5.2,25.9-19.9,34.8c-19.9,12.1-51.4,8-88.7-11.5
	c-6.1-3.2-13.5-0.8-16.7,5.3c-3.2,6.1-0.8,13.5,5.3,16.7c30.1,15.7,54.1,21.1,72.9,21.1c17.6,0,30.8-4.8,40.2-10.5
	c23.5-14.2,31.9-39,31.9-56v-55.4C-2015,854.8-2015,846.9-2015,845.8z"/>
<path id="XMLID_29_" class="st1" d="M-1992.3,787h19.1c0,0,16.2-24.2,10.5-36.6c-5.7-12.4-22.2-13.4-32.7-4.9
	S-2001.8,774-1992.3,787z"/>
<path id="XMLID_28_" class="st1" d="M-1673.1,787.8c-20.2-0.4-38.3,3.9-51.9,21.8c-19.5-24.1-40-23.8-51.6-20.9
	c-26.1,6.6-44.4,27.1-44.4,57.5v80c0,6.8,5.7,12.4,12.5,12.4s12.5-5.5,12.5-12.4v-80c0-19.3,11.4-32.4,25.6-33.5
	c16.3-1.3,33.4,6.5,33.4,30.1v83.5c0,6.8,5.7,12.4,12.5,12.4s12.5-5.5,12.5-12.4v-83.7c0-20,17.6-31.4,31-30.7
	c15.1,0.8,30,9.3,30,34.3v78.1c0,6.8,5.7,12.4,12.5,12.4s12.5-5.5,12.5-12.4v-78.1C-1626,809-1647.2,788.3-1673.1,787.8z"/>
<path id="XMLID_78_" class="st0" d="M-1298.2,84c-83.5,0-165.8,55.7-165.8,155.6v253.9c0,12.8,10.7,23.2,23.5,23.2
	s23.5-10.4,23.5-23.2V358.6c30,31.3,72.2,50.9,118.6,50.9c89.7,0,162.8-73,162.8-162.7S-1208.5,84-1298.2,84z M-1297.8,362.9
	c-64.1,0-116.2-52.1-116.2-116.2s52.1-116.2,116.2-116.2c64.1,0,116.2,52.1,116.2,116.2S-1233.7,362.9-1297.8,362.9z"/>
<rect id="XMLID_270_" x="-1018" class="st0" width="960" height="560"/>
<path id="XMLID_306_" class="st1" d="M-879.9,157.1c-44.5,0-88.1,29.7-88.1,82.9v135.3c0,6.8,5.7,12.4,12.5,12.4s12.5-5.5,12.5-12.4
	v-71.9c16,16.7,38.3,27.1,63,27.1c47.8,0,86.8-38.9,86.8-86.7S-832.1,157.1-879.9,157.1z M-879.9,305.7c-34.2,0-61.9-27.8-61.9-61.9
	s27.8-61.9,61.9-61.9c34.2,0,61.9,27.8,61.9,61.9S-845.8,305.7-879.9,305.7z"/>
<path id="XMLID_303_" class="st1" d="M-298.5,261.6c0-39.4-32.1-71.5-71.5-71.5s-71.5,32.1-71.5,71.5c0,39.4,32.1,71.5,71.5,71.5
	c17.5,0,33.6-6.3,46-16.9l-0.3,17.9c-0.1,6.8,5.5,12.9,12.2,12.9c0.1,0,0.1,0,0.2,0c6.7,0,12.3-5.8,12.4-12.6l1-60
	C-298.5,273-298.5,264.7-298.5,261.6z M-370,308.3c-25.7,0-46.7-20.9-46.7-46.7c0-25.7,20.9-46.7,46.7-46.7
	c25.7,0,46.7,20.9,46.7,46.7C-323.3,287.4-344.2,308.3-370,308.3z"/>
<path id="XMLID_300_" class="st1" d="M-636.9,260.9c0-39.4-32.1-71.5-71.5-71.5c-39.4,0-71.5,32.1-71.5,71.5s32.1,71.5,71.5,71.5
	c17.5,0,33.6-6.3,46-16.9l-0.3,18.2c-0.1,6.8,4.9,13.2,12.2,13.2c0.1,0,0.1,0,0.2,0c7.8,0,12.3-6.2,12.4-13l1-60.2
	C-636.9,272.5-636.9,263.9-636.9,260.9z M-708.4,307.6c-25.7,0-46.7-20.9-46.7-46.7c0-25.7,20.9-46.7,46.7-46.7
	c25.7,0,46.7,20.9,46.7,46.7C-661.7,286.7-682.7,307.6-708.4,307.6z"/>
<path id="XMLID_299_" class="st1" d="M-470,252.8v-60.5c0-6.8-5.7-12.4-12.5-12.4s-12.5,5.5-12.5,12.4V263
	c-3,25.1-25.1,44.6-51.3,44.6c-28.5,0-51.7-23.1-51.7-51.5v-63.8c0-6.8-5.7-12.4-12.5-12.4s-12.5,5.5-12.5,12.4v63.8
	c0,42,34.5,76.2,76.6,76.2c19.7,0,37.4-7.5,51.4-19.7v7.3c0,10.5-5.2,25.9-19.9,34.8c-19.9,12.1-51.4,8-88.7-11.5
	c-6.1-3.2-13.5-0.8-16.7,5.3c-3.2,6.1-0.8,13.5,5.3,16.7c30.1,15.7,54.1,21.1,72.9,21.1c17.6,0,30.8-4.8,40.2-10.5
	c23.5-14.2,31.9-39,31.9-56v-55.4C-470,261.8-470,253.9-470,252.8z"/>
<path id="XMLID_298_" class="st1" d="M-447.3,194h19.1c0,0,16.2-24.2,10.5-36.6s-22.2-13.4-32.7-4.9C-461,161.1-456.8,181-447.3,194
	z"/>
<path id="XMLID_297_" class="st1" d="M-128.1,194.8c-20.2-0.4-38.3,3.9-51.9,21.8c-19.5-24.1-40-23.8-51.6-20.9
	c-26.1,6.6-44.4,27.1-44.4,57.5v80c0,6.8,5.7,12.4,12.5,12.4s12.5-5.5,12.5-12.4v-80c0-19.3,11.4-32.4,25.6-33.5
	c16.3-1.3,33.4,6.5,33.4,30.1v83.5c0,6.8,5.7,12.4,12.5,12.4s12.5-5.5,12.5-12.4v-83.7c0-20,17.6-31.4,31-30.7
	c15.1,0.8,30,9.3,30,34.3v78.1c0,6.8,5.7,12.4,12.5,12.4s12.5-5.5,12.5-12.4v-78.1C-81,216-102.2,195.3-128.1,194.8z"/>
<path id="XMLID_374_" class="st0" d="M274.1,560L274.1,560C122.7,560,0,437.3,0,285.9v-11.8C0,122.7,122.7,0,274.1,0h0
	c151.4,0,274.1,122.7,274.1,274.1v11.8C548.2,437.3,425.5,560,274.1,560z"/>
<path id="XMLID_375_" class="st1" d="M287.6,66.8c-83.5,0-165.6,55.7-165.6,155.6v253.9c0,12.8,10.7,23.2,23.5,23.2
	s23.5-10.4,23.5-23.2V341.4c30,31.3,72,50.9,118.4,50.9c89.7,0,162.8-73,162.8-162.7S377.3,66.8,287.6,66.8z M287.9,345.8
	c-64.1,0-116.2-52.1-116.2-116.2s52.1-116.2,116.2-116.2s116.2,52.1,116.2,116.2S352,345.8,287.9,345.8z"/>
</svg>
